 <svg xmlns="http://www.w3.org/2000/svg" width="100%" height="auto" viewBox="0 0 80.98 36.72">
      <g id="Layer_1-2" data-name="Layer 1">
        <g>
          <g>
            <path
              fill="#060708"
              stroke-width="0px"
              d="m24.27,7.83c-.81,0-1.62,0-2.43,0-.14-.16-.17-.35-.19-.56-.25-2.03-1.32-3.48-3.22-4.23-3.25-1.47-7.82.28-8.2,4.1-.03.24-.04.49-.2.69-.81,0-1.62,0-2.43,0,.24-10.45,16.45-10.41,16.67,0Z"
            />
            <path
              fill="#6366F1"
              d="m31.85,33.97c-.58-4.59-1.09-9.18-1.64-13.77-.39-3.26-.79-6.53-1.18-9.79-.45-2.66-2.57-2.64-4.76-2.59-.19-.09-.39-.06-.59-.07-.85.04-1.68-.05-2.52-.09-4.52.05-9.07-.14-13.56.16-2.1-.06-4.28-.08-4.75,2.45-.25,1.95-.47,3.9-.7,5.86-.33,2.78-.67,5.56-1.01,8.34-.37,3.11-.75,6.21-1.1,9.32-.05.39-.06.81.03,1.2.21.93,1,1.47,2.07,1.47,9.18,0,18.36,0,27.53,0,1.51,0,2.37-.98,2.18-2.48Zm-15.94-5.96c-4.49.09-8.52-3.48-8.31-8.1.02-1.65,2.41-1.61,2.43.02-.17,7,10.86,7.69,11.74.87.05-.95.07-2.11,1.31-2.12.66.01,1.19.54,1.2,1.22.22,4.47-3.73,8.27-8.37,8.12Zm8.34-11.12c-1.89-1.32-3.21,1.26-4.41-.31-.98-1.86,1.89-2.49,3.22-2.51.92,0,1.76.25,2.51.77,1.41.91.09,2.99-1.33,2.06Z"
            />
            <path
              fill="#060708"
              stroke-width="0px"
              d="m10.8,15.29c-.09,2.76-4.05,2.52-4.03,0-.02-2.61,3.96-2.69,4.03,0Z"
            />
          </g>
          <g>
            <path
              fill="#060708"
              stroke-width="0px"
              d="m79.59,13.17h1.39v9.54h-1.39c0-1.19,0-2.36,0-3.54q0-.6-.58-.6c-.36.02-.71-.04-1.07.04v4.12c-.45,0-.86,0-1.27,0-.15-.04-.21-.22-.18-.38,0-2.93,0-5.86,0-8.79,0-.3.04-.45.39-.4,1.06,0,1.15-.13,1.04,1.04,0,.89.01,1.78,0,2.67-.06.61.87.21,1.25.34.33.03.44-.06.44-.42-.02-1.19,0-2.38,0-3.61Z"
            />
            <path
              fill="#060708"
              stroke-width="0px"
              d="m63.15,22.73c-.46,0-.86-.02-1.26,0-.24.01-.32-.1-.39-.29-.45-1.2-.87-2.39-1.35-3.58-.28.51-.56.95-.51,1.55.05.66,0,1.32.02,1.98,0,.25-.04.37-.33.34-1.15.05-1.21.12-1.12-1.09,0-2.69,0-5.38,0-8.06,0-.32.05-.47.41-.43.32.04.8-.1.95.07.17.2.08.65.08.99,0,.85,0,1.71.08,2.58.52-1.11,1.08-2.2,1.58-3.31.11-.25.26-.33.53-.32.37.02.74,0,1.17,0-.62,1.28-1.17,2.46-1.8,3.71-.13.25-.15.45-.04.72.67,1.72,1.34,3.42,1.99,5.15Z"
            />
            <path
              fill="#060708"
              stroke-width="0px"
              d="m46.93,13.2c.44-.11.91,0,1.36-.03.03,2.72.21,5.5-.07,8.2-.69,2.43-4.51,1.71-4.27-.88,0-2.31,0-4.63,0-6.94,0-.29.03-.46.38-.41.34.05.78-.08.99.09.17.14.06.62.06.95,0,2.03,0,4.05,0,6.08-.04.53.11,1.22.76,1.22.38,0,.68-.24.75-.63.1-2.54,0-5.1.04-7.64Z"
            />
            <path
              fill="#060708"
              stroke-width="0px"
              d="m73.86,15.64c-.5.06-.92.1-1.39.16-.02-.57-.08-1.47-.86-1.38-.86.09-.8,1.31-.35,1.82.73.9,1.57,1.72,2.26,2.66,1.44,1.98-.33,4.77-2.71,3.8-1-.42-1.4-1.37-1.32-2.38,0-.06.14-.16.22-.17.35-.05.71-.08,1.08-.13.04.69.21,1.61,1.09,1.44.46-.07.79-.42.73-.9-.09-1.01-.94-1.63-1.57-2.33-1.02-1-1.89-2.3-1.36-3.78.29-.97,1.05-1.46,2.14-1.42,1.46.01,2.06,1.31,2.05,2.62Z"
            />
            <path
              fill="#060708"
              stroke-width="0px"
              d="m37.13,14.53v-1.35c1.39-.07,2.78,0,4.17-.03.27,0,.35.06.33.33-.03.34,0,.68,0,1.06-.39,0-.74,0-1.1,0-.49,0-.44-.07-.44.43,0,2.58,0,5.15,0,7.74h-1.41c0-2.59,0-5.18,0-7.77,0-.31-.06-.44-.4-.4-.37.03-.74,0-1.16,0Z"
            />
            <path fill="#060708" stroke-width="0px" d="m65.52,13.17h1.4v9.54h-1.4v-9.54Z" />
            <path
              fill="#060708"
              stroke-width="0px"
              d="m54.67,18.8c-.06-.23-.05-.37.16-.54.92-.73.69-2.02.7-3.07-.15-2.33-2.29-2.04-4.02-2.05-.32-.01-.4.07-.4.39.02,2.72,0,5.43.01,8.15,0,.34-.09.78.08.99.14.17.62.03.95.06.32.03.41-.06.41-.39-.02-1.08-.01-2.15,0-3.23,0-.11.04-.28.12-.32.32-.15.59.01.68.37.28,1.08.57,2.16.83,3.25.06.27.17.34.43.33.37-.02.74,0,1.13,0-.33-1.33-.72-2.61-1.08-3.93Zm-1.46-1.41q-.67.02-.67-.64c0-.27,0-.54,0-.82,0-.39,0-.77,0-1.16-.02-.23.11-.27.32-.25,1.03-.02,1.26.21,1.26,1.24.04.72.06,1.67-.92,1.62Z"
            />
          </g>
          <g>
            <path
              fill="#6366F1"
              d="m80.89,26.74c0-.75,0-.75-.76-.74-9.43.05-18.87.12-28.3.17-4.42.02-8.83.04-13.25.05-.82-.02-.78.05-.78.83,0,3.06.02,6.12.03,9.18,0,.54-.06.49.48.49,7.02-.06,14.04-.11,21.06-.09,0-.03,0-.06,0-.09,7.07,0,14.15-.03,21.22-.08.29,0,.37-.09.36-.37-.09-3.12-.03-6.24-.06-9.35Zm-39.27,4.26c.32-.01.63,0,.95,0,.18,0,.24.05.26.24.05.77.06.77-.73.77s-.78,0-.77.76c0,.41.03.82.05,1.23.4.01.8.03,1.2.03.63,0,.61,0,.63.64,0,.29-.07.4-.38.39-.72-.02-1.44-.03-2.16,0-.37.02-.42-.13-.41-.44.02-1.02,0-2.04,0-3.06s0-2.1,0-3.14c0-.24.03-.36.32-.36.78.02,1.55.01,2.33,0,.22,0,.29.06.3.29.01.72.02.72-.68.72-.3,0-.6.01-.91,0-.23-.01-.3.08-.29.3.01.44.01.89,0,1.34,0,.22.07.31.3.3Zm5.44.95s-.1.1-.15.1c-.66,0-1.32.01-1.98,0-.06,0-.22-.19-.19-.29q-.03-.75.73-.75c.16,0,.32,0,.47,0,.27.01.91-.04,1.08.05.07.28.05.59.04.89Zm6.21,3.11c-.76,0-.76.02-.76-.73v-3.49s-.05,0-.07-.01c-.25,1.3-.57,2.59-.78,3.9-.05.33-.22.32-.47.34-.28.02-.37-.1-.42-.35-.26-1.3-.52-2.61-.85-3.91-.05,1.29-.02,2.58-.01,3.86,0,.28-.05.4-.37.39-.66-.02-.66,0-.66-.66,0-1.97,0-3.94,0-5.9,0-.32.06-.47.42-.43.34.04.79-.1,1,.07.21.17.2.63.27.96.23,1.06.39,2.13.66,3.19.02,0,.03,0,.05,0,.24-1.27.49-2.53.72-3.8.05-.69.85-.29,1.31-.41.23-.01.29.08.29.3,0,2.13,0,4.25,0,6.38,0,.24-.07.32-.32.32Zm4.42-1.32c-.09-.5-.49-.16-.73-.23-.17-.05-.4-.07-.42.26-.02.36-.09.71-.16,1.06-.02.09-.14.2-.23.21-.82.1-.84.08-.72-.73.31-2,.64-4,.95-5.99.03-.17.08-.24.27-.26,1.16-.1,1.17-.11,1.35,1,.3,2,.7,3.99.93,5.99-1.37.11-1.01-.21-1.24-1.31Zm5.07.39c-.14-.57-.3-1.14-.44-1.71-.05-.23-.17-.28-.39-.28-.28,0-.19.2-.19.34,0,.76,0,1.52,0,2.28,0,.22-.06.29-.29.3-.75.01-.75.02-.75-.73,0-1.94,0-3.88,0-5.82,0-.5-.07-.44.47-.45,1.07-.05,2.61-.13,2.72,1.28.06.8.15,1.72-.42,2.36-.18.21-.2.37-.13.61.25.91.53,1.8.73,2.71q-1.06.08-1.31-.9Zm5.27.05c-.23-.63-.47-1.26-.73-1.94-.61.75-.34,1.69-.39,2.57,0,.19-.06.24-.25.25-.8.04-.79.05-.79-.73,0-1.94,0-3.88,0-5.81q0-.45.42-.45.61,0,.61.6v2.01s.04.01.07.02c.35-.71.72-1.42,1.02-2.15.23-.69.79-.43,1.37-.48-.39.81-.71,1.57-1.12,2.29-.27.47-.27.87-.06,1.36.45,1.08.85,2.18,1.29,3.31-.97.12-1.14.11-1.45-.84Zm5.39.88c-.63,0-1.27-.01-1.9,0-.25,0-.32-.08-.31-.32.01-1.06,0-2.13,0-3.19,0-1.05,0-2.1,0-3.15,0-.25.05-.35.33-.35.76.02,1.53.02,2.29,0,.27,0,.35.07.34.34-.03.81.1.67-.68.68-.33,0-.66,0-.99,0-.16,0-.23.05-.23.22,0,.49,0,.98,0,1.47,0,.21.1.23.27.23.32,0,.63,0,.95,0,.19,0,.28.03.29.25.03.77.04.77-.73.77q-.77,0-.77.75c0,.32.01.63,0,.95-.01.24.05.33.31.32.43-.02.86,0,1.29,0,.2,0,.3.03.31.28.02.75.03.75-.74.75Zm4.37-5.97c0,1.9,0,3.72,0,5.6,0,.25-.02.39-.34.38-.72-.01-.72,0-.72-.73,0-1.61,0-3.21,0-4.82,0-.31-.05-.46-.41-.45-.77.02-.76,0-.72-.76,0-.18.05-.25.25-.25.95,0,1.9,0,2.84,0,.07,0,.2.06.2.09.1,1.18-.07.89-1.11.92Z"
            />
            <path
              fill="#6366F1"
              d="m62.87,30.12c.07.67-.23,1.23-.99,1-.06-.02-.14-.13-.14-.2-.01-.54,0-1.09,0-1.63.05-.58,1.11-.14,1.12.28.02.18,0,.37,0,.56,0,0,0,0,0,0Z"
            />
            <path
              fill="#6366F1"
              d="m56.73,32.43c.12-.87.24-1.72.36-2.57.02,0,.04,0,.06,0,.09.65.2,1.3.28,1.95q.09.69-.7.62Z"
            />
          </g>
        </g>
      </g>
    </svg>